<?xml version="1.0" encoding="UTF-8" standalone="no"?><!DOCTYPE svg PUBLIC "-//W3C//DTD SVG 1.1//EN" "http://www.w3.org/Graphics/SVG/1.1/DTD/svg11.dtd"><svg width="100%" height="100%" viewBox="0 0 615 718" version="1.1" xmlns="http://www.w3.org/2000/svg" xmlns:xlink="http://www.w3.org/1999/xlink" xml:space="preserve" xmlns:serif="http://www.serif.com/" style="fill-rule:evenodd;clip-rule:evenodd;stroke-linejoin:round;stroke-miterlimit:2;"><path d="M521.284,466.219l-2.063,1.094l-0.219,0.125c-1.75,-3.907 -2.781,-7.407 -3.093,-10.75l3.156,5.593l2.219,3.938Z" style="fill:#f7e8d3;fill-rule:nonzero;"/><path d="M605.315,370.875c-11.969,14.906 -18.969,33.188 -20.031,52.281c-0.344,3.657 -1.531,7.188 -3.469,10.313l0.125,0.219l-60.656,32.531l-2.219,-3.938l-3.156,-5.593c0.312,3.343 1.344,6.843 3.094,10.75l0.218,-0.125l2.063,-1.094l36.656,65.062c7.813,2.219 13.531,9.438 13.531,17.969c0,10.344 -8.375,18.719 -18.718,18.719c-10.344,-0 -18.719,-8.375 -18.719,-18.719c-0,-2.969 0.687,-5.75 1.906,-8.219l-35.719,-63.406l0.617,-1.903c0.625,0.813 0.124,2.731 0.78,3.669l-61.678,36.422l0.125,0.187c-3.687,0.031 -7.312,-0.781 -10.625,-2.375c-16.906,-8.969 -36.156,-12.437 -55.125,-9.937c-16.187,1.812 -23.875,-1.188 -31.812,-12.5l61.312,-36.032l-0.125,-0.187c3.688,-0.031 7.313,0.781 10.625,2.406c16.875,8.969 36.156,12.438 55.094,9.938c6.062,-0.75 10.969,-0.813 15.094,0.062l-81.438,-53.156l0.219,-0.125l-158.875,-414.094l271.469,351.094l-0.282,0.156l2.875,92.438c1.5,-3.063 3.657,-6.282 6.469,-9.875c11.938,-14.938 18.938,-33.188 20.031,-52.282c0.313,-3.656 1.5,-7.187 3.438,-10.312l-0.125,-0.219l62.937,-33.719c5.563,12.5 4.125,20.844 -5.906,33.594" style="fill:#f7e8d3;fill-rule:nonzero;"/><path d="M519.221,467.313l-0.218,0.125c-1.75,-3.907 -3.157,-8.713 -3.47,-12.057l3.532,6.9l0.156,5.032Z" style="fill:#f7e8d3;fill-rule:nonzero;"/><path d="M521.284,466.219l-0.565,2.85l-3.692,-0.664c-1.75,-3.906 -7.165,-6.252 -7.477,-9.596l15.073,-1.65l-3.339,9.06Z" style="fill:#f7e8d3;fill-rule:nonzero;"/><path d="M98.002,463.688c-0.531,2.375 -1.375,4.843 -2.562,7.5l-0.188,-0.094l-1.062,-0.594l1.156,-2.062l0.625,-20.969c2.719,5.531 3.313,10.562 2.031,16.219" style="fill:#f7e8d3;fill-rule:nonzero;"/><path d="M95.971,447.469l8.395,19.185l-10.176,3.846l-61.687,-33.031l0.125,-0.219c-1.938,-3.125 -3.125,-6.656 -3.469,-10.313c-1.063,-19.093 -8.063,-37.375 -20.031,-52.281c-10.032,-12.781 -11.469,-21.125 -5.907,-33.625l62.938,33.719l-0.125,0.219c1.937,3.125 3.125,6.656 3.437,10.312c1.094,19.094 8.094,37.344 20.032,52.281c2.812,3.594 4.968,6.813 6.468,9.907" style="fill:#f7e8d3;fill-rule:nonzero;"/><path d="M174.628,519.5l-0.25,0l0.062,-0.125l0.188,0.125Z" style="fill:#f7e8d3;fill-rule:nonzero;"/><path d="M271.94,494.968c-7.937,11.313 -15.625,14.313 -31.812,12.313c-18.938,-2.531 -38.219,0.906 -55.125,9.844c-3.157,1.5 -6.594,2.343 -10.094,2.375l-0.281,-0l-0.188,-0.125l-60.25,-35.469l-2.463,-9.61l18.526,-3.359c4.062,-0.812 8.843,-0.781 14.781,-0.125c18.937,2.5 38.219,-0.969 55.094,-9.937c3.312,-1.625 6.937,-2.438 10.625,-2.375l-0.125,0.187l61.312,36.281Z" style="fill:#f7e8d3;fill-rule:nonzero;"/><path d="M117.44,478.094c3.688,-3.906 7.688,-6.188 12.813,-7.156l-13.875,9.031l-2.188,3.937l-0.969,-0.593c0.594,-0.875 1.219,-1.688 1.844,-2.469c0.781,-1 1.563,-1.906 2.375,-2.75" style="fill:#f7e8d3;fill-rule:nonzero;"/><path d="M174.909,519.5l-0.063,0.125l-0.218,-0.125l0.281,0Z" style="fill:#f7e8d3;fill-rule:nonzero;"/><path d="M211.159,417.844l0.219,0.125l-81.125,52.969c-5.125,0.968 -9.125,3.25 -12.813,7.156c-0.812,0.844 -1.594,1.75 -2.375,2.75c-0.625,0.781 -1.25,1.594 -1.844,2.469l0.969,0.593l-34.969,62.625c0.782,2.032 1.188,4.219 1.188,6.5c-0,10.344 -8.375,18.719 -18.719,18.719c-10.344,0 -18.719,-8.375 -18.719,-18.719c0,-9.218 6.657,-16.875 15.407,-18.406l35.812,-64.125l0.978,-0.711l0.272,1.399c1.188,-2.657 -1.958,-5.451 -1.427,-7.826c1.281,-5.657 -1.957,-10.099 1.958,-15.893l2.875,-92.469l-0.281,-0.156l271.469,-351.063l-158.875,414.063Z" style="fill:#f7e8d3;fill-rule:nonzero;"/><path d="M117.44,478.094l-1.062,1.875l-2.188,3.937l-4.28,1.819c0.593,-0.875 2.872,-5.945 3.497,-6.726c0.782,-1 3.221,-0.061 4.033,-0.905" style="fill:#f7e8d3;fill-rule:nonzero;"/><path d="M243.128,441.313c-3.188,1.371 -5.875,3.696 -7.688,6.656c-0.375,0.556 -0.865,1.025 -1.437,1.375l-0,-12.875l12.968,-0c-0.25,2.531 -1.125,3.687 -3.843,4.844m-0.782,-9.688c-7.265,0.019 -13.143,5.922 -13.125,13.188c0.019,7.265 5.922,13.14 13.188,13.125c7.253,-0.019 13.125,-5.904 13.125,-13.157c-0,-7.265 -5.891,-13.156 -13.156,-13.156l-0.032,0" style="fill:#f7e8d3;fill-rule:nonzero;"/><path d="M297.534,442.875c-3.194,1.35 -5.881,3.666 -7.688,6.625c-0.375,0.556 -0.865,1.025 -1.437,1.375l-0,-12.875l12.937,0c-0.156,2.5 -1.093,3.688 -3.812,4.875m-2.188,-9.719c-7.265,0.019 -13.143,5.922 -13.125,13.188c0.019,7.265 5.922,13.14 13.188,13.125c7.253,-0.019 13.125,-5.903 13.125,-13.156c-0,-7.266 -5.891,-13.157 -13.156,-13.157l-0.032,0Z" style="fill:#f7e8d3;fill-rule:nonzero;"/><path d="M67.659,692.125c-0.025,-1.216 -0.584,-2.359 -1.531,-3.125c-1.147,-0.778 -2.522,-1.15 -3.907,-1.062c-0.934,-0.022 -1.868,0.125 -2.75,0.437c-0.665,0.225 -1.25,0.638 -1.687,1.188c-0.353,0.506 -0.55,1.103 -0.563,1.718c-0.031,0.488 0.079,0.975 0.313,1.407c0.272,0.428 0.634,0.79 1.062,1.062c0.51,0.35 1.066,0.625 1.657,0.813c0.712,0.25 1.443,0.45 2.187,0.593l3.125,0.719c1.61,0.316 3.172,0.831 4.656,1.531c1.25,0.56 2.404,1.319 3.407,2.25c0.918,0.875 1.634,1.944 2.093,3.125c0.491,1.232 0.735,2.55 0.719,3.875c0.056,2.047 -0.534,4.06 -1.687,5.75c-1.213,1.691 -2.897,2.985 -4.844,3.719c-2.425,0.906 -5.003,1.344 -7.594,1.281c-2.644,0.047 -5.275,-0.409 -7.75,-1.343c-2.09,-0.8 -3.89,-2.216 -5.156,-4.063c-1.291,-2.056 -1.941,-4.45 -1.875,-6.875l8.219,0c0.028,1.016 0.34,2 0.906,2.844c0.559,0.794 1.344,1.403 2.25,1.75c1.056,0.406 2.181,0.606 3.312,0.594c1.01,0.025 2.016,-0.135 2.969,-0.469c0.735,-0.256 1.381,-0.71 1.875,-1.313c0.435,-0.54 0.675,-1.212 0.688,-1.906c-0.007,-0.628 -0.228,-1.234 -0.625,-1.719c-0.51,-0.565 -1.157,-0.997 -1.875,-1.25c-1.013,-0.409 -2.06,-0.734 -3.125,-0.968l-3.719,-0.875c-2.678,-0.513 -5.184,-1.697 -7.281,-3.438c-1.738,-1.606 -2.694,-3.884 -2.625,-6.25c-0.05,-2.066 0.562,-4.091 1.75,-5.781c1.281,-1.713 2.997,-3.05 4.968,-3.875c2.275,-0.947 4.722,-1.416 7.188,-1.375c2.469,-0.056 4.922,0.422 7.187,1.406c1.91,0.831 3.547,2.184 4.719,3.906c1.135,1.725 1.735,3.747 1.719,5.813l-8.375,-0.094Z" style="fill:#f7e8d3;fill-rule:nonzero;"/><path d="M80.721,717.125l0,-35.562l24.75,-0l0,6.968l-16.187,0l-0,7.282l14.937,-0l0,7l-14.937,-0l-0,7.281l16.187,-0l0,7.031l-24.75,0Z" style="fill:#f7e8d3;fill-rule:nonzero;"/><path d="M143.096,694.406l-8.656,0c-0.115,-0.834 -0.359,-1.643 -0.719,-2.406c-0.359,-0.7 -0.846,-1.325 -1.437,-1.844c-0.619,-0.512 -1.331,-0.903 -2.094,-1.156c-0.856,-0.287 -1.753,-0.422 -2.656,-0.406c-1.572,-0.044 -3.119,0.39 -4.438,1.25c-1.293,0.925 -2.293,2.206 -2.875,3.687c-0.709,1.844 -1.046,3.807 -1,5.782c-0.062,2.018 0.288,4.028 1.032,5.906c0.553,1.462 1.547,2.719 2.843,3.594c1.316,0.834 2.85,1.259 4.407,1.218c0.868,0.013 1.734,-0.115 2.562,-0.375c0.763,-0.206 1.475,-0.568 2.094,-1.062c0.594,-0.475 1.091,-1.06 1.469,-1.719c0.397,-0.709 0.672,-1.481 0.812,-2.281l8.656,-0c-0.162,1.622 -0.618,3.2 -1.343,4.656c-0.803,1.559 -1.86,2.972 -3.125,4.188c-1.391,1.3 -3.028,2.306 -4.813,2.968c-4.956,1.81 -10.45,1.447 -15.125,-1c-2.559,-1.462 -4.64,-3.634 -6,-6.25c-1.556,-3.065 -2.319,-6.472 -2.219,-9.906c-0.106,-3.45 0.669,-6.869 2.25,-9.937c1.357,-2.629 3.454,-4.8 6.032,-6.25c2.625,-1.429 5.575,-2.16 8.562,-2.125c2.025,-0.013 4.041,0.293 5.969,0.906c1.756,0.547 3.391,1.428 4.812,2.594c1.413,1.143 2.572,2.571 3.407,4.187c0.893,1.809 1.434,3.772 1.593,5.781" style="fill:#f7e8d3;fill-rule:nonzero;"/><path d="M169.471,681.563l8.5,-0l0,23.062c0.054,2.438 -0.609,4.841 -1.906,6.906c-1.287,1.988 -3.122,3.56 -5.281,4.532c-4.991,2.128 -10.634,2.128 -15.625,-0c-2.2,-0.994 -4.053,-2.629 -5.313,-4.688c-1.293,-2.066 -1.946,-4.469 -1.875,-6.906l0,-22.906l8.563,-0l-0,22.156c-0.013,1.144 0.266,2.275 0.812,3.281c0.529,0.953 1.319,1.734 2.282,2.25c2.118,1.084 4.631,1.084 6.75,0c0.947,-0.525 1.725,-1.303 2.25,-2.25c0.565,-0.997 0.847,-2.134 0.812,-3.281l0.031,-22.156Z" style="fill:#f7e8d3;fill-rule:nonzero;"/><path d="M203.44,700.906l8.906,16.219l-9.375,0l-8.687,-16.219l9.156,0Zm-20,16.219l0,-35.562l14.656,-0c2.379,-0.063 4.741,0.418 6.907,1.406c1.859,0.897 3.412,2.322 4.468,4.094c1.088,1.9 1.641,4.059 1.594,6.25c0.053,2.193 -0.509,4.359 -1.625,6.25c-1.084,1.737 -2.678,3.103 -4.562,3.906c-2.222,0.944 -4.619,1.403 -7.032,1.344l-9.375,-0l0,-6.75l7.688,-0c1.066,0.009 2.122,-0.169 3.125,-0.532c0.812,-0.284 1.509,-0.834 1.969,-1.562c0.493,-0.806 0.734,-1.744 0.687,-2.688c0.041,-0.953 -0.197,-1.9 -0.687,-2.718c-0.457,-0.744 -1.15,-1.316 -1.969,-1.625c-0.997,-0.385 -2.056,-0.575 -3.125,-0.563l-4.25,0l-0,28.75l-8.469,0Z" style="fill:#f7e8d3;fill-rule:nonzero;"/><rect x="215.753" y="681.563" width="8.594" height="35.563" style="fill:#f7e8d3;"/><path d="M228.565,688.531l0,-6.968l30.031,-0l0,6.968l-10.781,0l0,28.594l-8.469,0l0,-28.531l-10.781,-0.063Z" style="fill:#f7e8d3;fill-rule:nonzero;"/><path d="M261.034,681.563l9.594,-0l7.5,14.843l0.312,0l7.5,-14.843l9.594,-0l-12.969,23.656l0,11.906l-8.531,0l-0,-11.844l-13,-23.718Z" style="fill:#f7e8d3;fill-rule:nonzero;"/><path d="M341.909,694.406l-8.656,0c-0.116,-0.834 -0.36,-1.643 -0.719,-2.406c-0.359,-0.7 -0.847,-1.325 -1.438,-1.844c-0.618,-0.512 -1.331,-0.903 -2.093,-1.156c-0.857,-0.287 -1.753,-0.422 -2.657,-0.406c-1.571,-0.044 -3.118,0.39 -4.437,1.25c-1.303,0.915 -2.306,2.2 -2.875,3.687c-0.709,1.844 -1.047,3.807 -1,5.782c-0.063,2.018 0.287,4.028 1.031,5.906c0.553,1.462 1.547,2.719 2.844,3.594c1.306,0.831 2.828,1.256 4.375,1.218c0.878,0.013 1.753,-0.115 2.594,-0.375c0.75,-0.212 1.453,-0.575 2.062,-1.062c0.61,-0.466 1.122,-1.05 1.5,-1.719c0.397,-0.709 0.669,-1.481 0.813,-2.281l8.656,-0c-0.159,1.625 -0.625,3.206 -1.375,4.656c-0.791,1.566 -1.85,2.984 -3.125,4.188c-1.391,1.3 -3.028,2.306 -4.813,2.968c-4.956,1.81 -10.45,1.447 -15.125,-1c-2.565,-1.462 -4.659,-3.631 -6.031,-6.25c-2.937,-6.287 -2.937,-13.556 0,-19.843c1.378,-2.622 3.481,-4.794 6.063,-6.25c2.625,-1.429 5.575,-2.16 8.562,-2.125c2.025,-0.013 4.041,0.293 5.969,0.906c1.756,0.547 3.391,1.428 4.812,2.594c1.416,1.134 2.569,2.562 3.375,4.187c0.941,1.797 1.513,3.763 1.688,5.781" style="fill:#f7e8d3;fill-rule:nonzero;"/><path d="M346.721,717.125l0,-35.562l8.594,-0l0,14.25l14,-0l0,-14.25l8.656,-0l0,35.562l-8.562,0l-0,-14.25l-14,0l-0,14.25l-8.688,0Z" style="fill:#f7e8d3;fill-rule:nonzero;"/><path d="M389.784,703.156l19.437,0l0,6.532l-19.281,-0l-0.156,-6.532Zm1.219,13.969l-9.219,0l12,-35.5l11.406,0l12,35.5l-9.375,0l-8.344,-26.562l-0.281,-0l-8.187,26.562Z" style="fill:#f7e8d3;fill-rule:nonzero;"/><path d="M421.003,681.563l10.656,-0l9,21.875l0.437,-0l9,-21.875l10.657,-0l-0,35.562l-8.375,0l-0,-21.875l-0.282,0l-8.5,21.594l-5.343,-0l-8.563,-21.875l-0.281,-0l-0,21.875l-8.375,-0l-0.031,-35.281Z" style="fill:#f7e8d3;fill-rule:nonzero;"/><path d="M466.128,717.125l-0,-35.562l14.656,-0c2.394,-0.066 4.766,0.459 6.906,1.531c1.878,0.969 3.435,2.469 4.469,4.312c1.094,1.966 1.644,4.188 1.594,6.438c0.059,2.253 -0.503,4.481 -1.625,6.437c-1.075,1.832 -2.66,3.307 -4.563,4.25c-2.19,1.05 -4.603,1.563 -7.031,1.5l-9.063,0l0,-6.75l7.469,0c1.081,0.022 2.153,-0.215 3.125,-0.687c0.841,-0.413 1.528,-1.081 1.969,-1.906c0.912,-1.788 0.912,-3.9 -0,-5.688c-0.444,-0.816 -1.131,-1.472 -1.969,-1.875c-0.981,-0.447 -2.047,-0.669 -3.125,-0.656l-4.094,-0l0,28.656l-8.718,0Z" style="fill:#f7e8d3;fill-rule:nonzero;"/><rect x="497.972" y="681.563" width="8.563" height="35.563" style="fill:#f7e8d3;"/><path d="M536.659,699.313c0.056,-2.004 -0.272,-3.997 -0.969,-5.875c-0.559,-1.46 -1.537,-2.722 -2.812,-3.625c-2.703,-1.622 -6.078,-1.622 -8.782,-0c-1.275,0.903 -2.253,2.165 -2.812,3.625c-1.291,3.809 -1.291,7.94 -0,11.75c0.559,1.459 1.537,2.721 2.812,3.625c2.704,1.621 6.079,1.621 8.782,-0c1.275,-0.904 2.253,-2.166 2.812,-3.625c0.697,-1.879 1.025,-3.872 0.969,-5.875m8.781,-0c0.106,3.45 -0.669,6.868 -2.25,9.937c-1.422,2.653 -3.597,4.828 -6.25,6.25c-5.39,2.834 -11.828,2.834 -17.219,0c-2.584,-1.462 -4.696,-3.631 -6.093,-6.25c-3,-6.275 -3,-13.569 -0,-19.844c1.381,-2.631 3.497,-4.803 6.093,-6.25c5.391,-2.834 11.829,-2.834 17.219,0c2.653,1.422 4.828,3.597 6.25,6.25c1.578,3.06 2.35,6.466 2.25,9.907" style="fill:#f7e8d3;fill-rule:nonzero;"/><path d="M580.69,681.563l0,35.562l-7.312,0l-14.157,-20.562l-0.218,-0l-0,20.562l-8.594,0l-0,-35.562l7.406,-0l13.969,20.437l0.281,0l0,-20.437l8.625,-0Z" style="fill:#f7e8d3;fill-rule:nonzero;"/></svg>